<svg xmlns="http://www.w3.org/2000/svg" viewBox="0 0 364.8 103.98"><g data-name="Layer 2"><path d="M39 44a7.48 7.48 0 01-4.78 7c4.31 1.31 5.88 5.89 5.88 8.19 0 8.2-6.14 10.82-13.76 10.82H8.91V33.29h17.43C33.59 33.29 39 36.55 39 44zm-23.26 4.1h10.6c4.36 0 5.78-1.84 5.78-3.94 0-1.68-1.36-4.51-5.78-4.51h-10.6zm0 15.54h10.6c2.84 0 6.88-.94 6.88-4.41 0-3.31-4-5-6.88-5h-10.6zM57.16 33.29v30.36h18.91v6.4H50.23V33.29zM112.3 63.12H93.08l-3.15 6.93h-7.51l16.49-36.76h7.56L123 70.05h-7.6zM102.69 41l-6.83 15.66h13.66zM161.55 65.43a19.36 19.36 0 01-14 5.46c-13.65 0-19.43-9.39-19.48-19s6.2-19.38 19.48-19.38a19 19 0 0113.5 5.62l-4.62 4.46a12.64 12.64 0 00-8.88-3.46c-8.87 0-12.71 6.61-12.65 12.76s3.57 12.44 12.65 12.44a13.53 13.53 0 009.25-3.73zM200.25 33.5l-16.33 17.6 17.7 18.53v.42h-8.56l-15.39-16.27v16.27h-6.93V33.29h6.93v15.55l14-15.55h8.61zM233.07 42.17c-1.26-2.1-4.73-4.1-8.72-4.1-5.15 0-7.62 2.15-7.62 4.89 0 3.2 3.78 4.09 8.2 4.62 7.66.94 14.8 2.94 14.8 11.71 0 8.19-7.24 11.71-15.43 11.71-7.51 0-13.29-2.31-16-9l5.78-3c1.62 4.05 5.88 5.83 10.34 5.83s8.46-1.52 8.46-5.51c0-3.47-3.63-4.89-8.51-5.41-7.53-.91-14.46-2.91-14.46-11.16 0-7.57 7.45-10.66 14.23-10.72 5.72 0 11.66 1.63 14.44 7.3zM259.84 39.6h-11.66v-6.31h30.25v6.31h-11.66v30.45h-6.93zM315.3 70.05h-27.53V33.29h27.53V40h-20.65v8.46h19.91v6.46h-19.91v8.3h20.65zM358.51 70.05h-8.25l-10.71-12.28h-6.67v12.28H326V33.24h17.49c8.66.05 13.23 5.83 13.23 12.19 0 5-2.31 10.13-9.3 11.55l11.14 12.55zm-25.63-30.3v11.77h10.56c4.41 0 6.3-3 6.3-5.89s-1.95-5.88-6.3-5.88z"/></g></svg>